<?xml version="1.0" encoding="UTF-8"?>
<svg version="1.1" xmlns="http://www.w3.org/2000/svg" width="512" height="512">
<path d="M0 0 C1.17927601 3.53782802 0.82181777 4.05993407 -0.6328125 7.34887695 C-1.02005997 8.23764526 -1.40730743 9.12641357 -1.80628967 10.04211426 C-2.24146408 11.01434937 -2.67663849 11.98658447 -3.125 12.98828125 C-3.57399155 14.01264282 -4.02298309 15.03700439 -4.48558044 16.09240723 C-5.46523336 18.32495476 -6.44923181 20.55559919 -7.4369812 22.78457642 C-9.83774456 28.2033914 -12.21223791 33.63370144 -14.58910942 39.06302452 C-15.41720361 40.95358934 -16.24647542 42.84363419 -17.07594299 44.7335968 C-22.62542221 57.38591815 -28.04026078 70.0945716 -33.4375 82.8125 C-35.35348909 87.3219027 -37.27042266 91.8309036 -39.1875 96.33984375 C-39.66444809 97.46188705 -40.14139618 98.58393036 -40.63279724 99.73997498 C-46.0429236 112.46226218 -51.48848533 125.16933067 -56.9375 137.875 C-57.42653809 139.01532684 -57.91557617 140.15565369 -58.41943359 141.33053589 C-60.40282068 145.95509688 -62.38632512 150.57960747 -64.37011719 155.20399475 C-67.90142465 163.43636239 -71.42930171 171.67019308 -74.95542717 179.90478134 C-76.63598215 183.82927645 -78.31685456 187.75363562 -79.99768925 191.67801094 C-81.34590553 194.82588707 -82.69391464 197.97385161 -84.04147339 201.12200928 C-85.52580136 204.58938593 -87.01086458 208.05644679 -88.49609375 211.5234375 C-88.9396521 212.56012573 -89.38321045 213.59681396 -89.84020996 214.66491699 C-90.24412964 215.6074231 -90.64804932 216.5499292 -91.06420898 217.52099609 C-91.41595688 218.34248138 -91.76770477 219.16396667 -92.13011169 220.01034546 C-92.71846353 221.35605489 -93.34317556 222.68635112 -94 224 C-52.09 224 -10.18 224 33 224 C29.33033406 228.28127693 25.82896751 232.29584469 21.87323189 236.24981594 C21.39187582 236.73232586 20.91051975 237.21483577 20.41457713 237.7119672 C18.81561337 239.31355874 17.21313569 240.91158512 15.61062622 242.5096283 C14.44616564 243.67452536 13.28192501 244.83964233 12.11788452 246.00495917 C8.92983976 249.19523364 5.73869601 252.38239223 2.54702616 255.56903946 C-0.89847683 259.01021623 -4.3410814 262.45429049 -7.78404236 265.89801025 C-13.7458727 271.86036445 -19.70952842 277.82088779 -25.67443466 283.78016472 C-34.29864193 292.3962383 -42.92008026 301.01507817 -51.54084946 309.63459153 C-65.52820677 323.61976125 -79.51779488 337.60269725 -93.50878906 351.58422852 C-107.09817802 365.16443576 -120.68651429 378.74569491 -134.2734375 392.32836914 C-135.11120692 393.16587583 -135.94897633 394.00338253 -136.8121327 394.86626821 C-141.01505013 399.06788058 -145.21794688 403.26951363 -149.42083335 407.47115695 C-184.27735103 442.31731119 -219.13749057 477.15984039 -254 512 C-255.17927601 508.46217198 -254.82181777 507.94006593 -253.3671875 504.65112305 C-252.97994003 503.76235474 -252.59269257 502.87358643 -252.19371033 501.95788574 C-251.75853592 500.98565063 -251.32336151 500.01341553 -250.875 499.01171875 C-250.42600845 497.98735718 -249.97701691 496.96299561 -249.51441956 495.90759277 C-248.53476664 493.67504524 -247.55076819 491.44440081 -246.5630188 489.21542358 C-244.16225544 483.7966086 -241.78776209 478.36629856 -239.41089058 472.93697548 C-238.58279639 471.04641066 -237.75352458 469.15636581 -236.92405701 467.2664032 C-231.37457779 454.61408185 -225.95973922 441.9054284 -220.5625 429.1875 C-218.64651091 424.6780973 -216.72957734 420.1690964 -214.8125 415.66015625 C-214.33555191 414.53811295 -213.85860382 413.41606964 -213.36720276 412.26002502 C-207.9570764 399.53773782 -202.51151467 386.83066933 -197.0625 374.125 C-196.57346191 372.98467316 -196.08442383 371.84434631 -195.58056641 370.66946411 C-193.59717932 366.04490312 -191.61367488 361.42039253 -189.62988281 356.79600525 C-186.09857535 348.56363761 -182.57069829 340.32980692 -179.04457283 332.09521866 C-177.36401785 328.17072355 -175.68314544 324.24636438 -174.00231075 320.32198906 C-172.65409447 317.17411293 -171.30608536 314.02614839 -169.95852661 310.87799072 C-168.47419864 307.41061407 -166.98913542 303.94355321 -165.50390625 300.4765625 C-165.0603479 299.43987427 -164.61678955 298.40318604 -164.15979004 297.33508301 C-163.75587036 296.3925769 -163.35195068 295.4500708 -162.93579102 294.47900391 C-162.58404312 293.65751862 -162.23229523 292.83603333 -161.86988831 291.98965454 C-161.28153647 290.64394511 -160.65682444 289.31364888 -160 288 C-201.91 288 -243.82 288 -287 288 C-283.33033406 283.71872307 -279.82896751 279.70415531 -275.87323189 275.75018406 C-275.15119778 275.02641919 -275.15119778 275.02641919 -274.41457713 274.2880328 C-272.81561337 272.68644126 -271.21313569 271.08841488 -269.61062622 269.4903717 C-268.44616564 268.32547464 -267.28192501 267.16035767 -266.11788452 265.99504083 C-262.92983976 262.80476636 -259.73869601 259.61760777 -256.54702616 256.43096054 C-253.10152317 252.98978377 -249.6589186 249.54570951 -246.21595764 246.10198975 C-240.2541273 240.13963555 -234.29047158 234.17911221 -228.32556534 228.21983528 C-219.70135807 219.6037617 -211.07991974 210.98492183 -202.45915054 202.36540847 C-188.47179323 188.38023875 -174.48220512 174.39730275 -160.49121094 160.41577148 C-146.90182198 146.83556424 -133.31348571 133.25430509 -119.7265625 119.67163086 C-118.88879308 118.83412417 -118.05102367 117.99661747 -117.1878673 117.13373179 C-112.98494987 112.93211942 -108.78205312 108.73048637 -104.57916665 104.52884305 C-69.72264897 69.68268881 -34.86250943 34.84015961 0 0 Z " fill="#000000" transform="translate(383,0)"/>
</svg>
